<svg width="30" height="37" viewBox="0 0 30 37" fill="none" xmlns="http://www.w3.org/2000/svg">
<path d="M17.9189 34.1578H11.762C11.4935 34.1579 11.2277 34.1036 10.9807 33.9983C10.7337 33.8929 10.5106 33.7386 10.3249 33.5447C10.1392 33.3507 9.9946 33.1212 9.89996 32.8699C9.80532 32.6186 9.76254 32.3508 9.77422 32.0825V27.9417C9.77422 27.8052 9.82845 27.6743 9.92497 27.5778C10.0215 27.4812 10.1524 27.427 10.2889 27.427C10.4254 27.427 10.5563 27.4812 10.6529 27.5778C10.7494 27.6743 10.8036 27.8052 10.8036 27.9417V32.0825C10.7926 32.2153 10.8091 32.349 10.8521 32.4752C10.8952 32.6013 10.9639 32.7172 11.0539 32.8155C11.1439 32.9138 11.2533 32.9924 11.3751 33.0465C11.497 33.1005 11.6287 33.1287 11.762 33.1294H17.9189C18.2223 33.1377 18.5185 33.0365 18.7534 32.8442C18.9883 32.652 19.1461 32.3816 19.1979 32.0825V27.9417C19.1979 27.8052 19.2522 27.6743 19.3487 27.5778C19.4452 27.4812 19.5761 27.427 19.7126 27.427C19.8491 27.427 19.9801 27.4812 20.0766 27.5778C20.1731 27.6743 20.2273 27.8052 20.2273 27.9417V32.0825C20.1804 32.6578 19.9151 33.1934 19.4859 33.5793C19.0566 33.9652 18.4959 34.1722 17.9189 34.1578Z" fill="#2D74FF"/>
<path d="M19.2761 28.4565H10.7259C10.4843 28.4551 10.2509 28.3691 10.0661 28.2135C9.88134 28.0579 9.75692 27.8425 9.71446 27.6047C9.283 25.5822 8.30367 23.7174 6.88359 22.2142C5.51986 20.6548 4.63412 18.7357 4.33227 16.6862C4.03042 14.6368 4.32524 12.5438 5.18148 10.6575C6.03772 8.77116 7.41914 7.17138 9.16055 6.04942C10.902 4.92746 12.9297 4.33081 15.0012 4.33081C17.0728 4.33081 19.1005 4.92746 20.8419 6.04942C22.5833 7.17138 23.9648 8.77116 24.821 10.6575C25.6772 12.5438 25.9721 14.6368 25.6702 16.6862C25.3684 18.7357 24.4826 20.6548 23.1189 22.2142C21.6983 23.7173 20.7184 25.5821 20.2865 27.6047C20.244 27.8423 20.1198 28.0576 19.9352 28.2132C19.7507 28.3687 19.5175 28.4548 19.2761 28.4565ZM14.9943 5.36484C13.1215 5.36543 11.2886 5.90533 9.71453 6.92C8.14047 7.93466 6.89192 9.38115 6.11812 11.0866C5.34432 12.792 5.07802 14.6841 5.35104 16.5369C5.62406 18.3896 6.42486 20.1245 7.65771 21.5342C9.20175 23.1763 10.2636 25.212 10.7269 27.4178L19.271 27.4271C19.7359 25.2182 20.7995 23.1797 22.3453 21.5348C23.5426 20.1658 24.3332 18.4893 24.6277 16.6947C24.9223 14.9 24.7091 13.0588 24.0121 11.379C23.3152 9.69914 22.1623 8.24771 20.6838 7.18868C19.2053 6.12964 17.4601 5.50521 15.6454 5.38594C15.4278 5.37221 15.2108 5.36518 14.9943 5.36484Z" fill="#2D74FF"/>
<path d="M15.0006 36.0313C14.3798 36.0303 13.7848 35.7832 13.346 35.3442C12.9072 34.9052 12.6604 34.3101 12.6597 33.6894C12.6582 33.5481 12.7105 33.4116 12.8062 33.3076C12.9018 33.2037 13.0335 33.1401 13.1744 33.1299H16.8288C16.9653 33.1299 17.0962 33.1841 17.1927 33.2806C17.2893 33.3772 17.3435 33.5081 17.3435 33.6446C17.3478 33.9555 17.2904 34.2642 17.1748 34.5529C17.0591 34.8415 16.8873 35.1044 16.6695 35.3263C16.4517 35.5482 16.192 35.7247 15.9056 35.8457C15.6191 35.9667 15.3115 36.0298 15.0006 36.0313ZM13.7761 34.1593C13.8711 34.4071 14.0391 34.6203 14.2578 34.7706C14.4765 34.921 14.7357 35.0015 15.0011 35.0015C15.2665 35.0015 15.5257 34.921 15.7444 34.7706C15.9631 34.6203 16.131 34.4071 16.2261 34.1593H13.7761Z" fill="#2D74FF"/>
<path d="M9.58069 30.7231C9.44863 30.7231 9.32162 30.6724 9.22592 30.5814C9.13023 30.4904 9.07318 30.3661 9.06656 30.2342C9.05995 30.1023 9.10429 29.9729 9.1904 29.8728C9.27652 29.7727 9.39782 29.7095 9.52922 29.6963L20.2901 28.5938C20.3585 28.5848 20.4279 28.5896 20.4944 28.6079C20.5609 28.6262 20.6229 28.6577 20.677 28.7005C20.7311 28.7433 20.776 28.7965 20.8091 28.857C20.8422 28.9175 20.8628 28.984 20.8697 29.0526C20.8766 29.1212 20.8696 29.1904 20.8492 29.2563C20.8288 29.3222 20.7954 29.3832 20.751 29.4359C20.7065 29.4886 20.6519 29.5319 20.5904 29.5631C20.529 29.5943 20.4618 29.6128 20.3931 29.6175L9.63216 30.72C9.61507 30.722 9.59789 30.7231 9.58069 30.7231Z" fill="#2D74FF"/>
<path d="M9.65998 32.8381C9.52347 32.8449 9.38984 32.7972 9.28849 32.7055C9.18714 32.6138 9.12637 32.4856 9.11954 32.3491C9.11271 32.2126 9.1604 32.079 9.2521 31.9776C9.3438 31.8763 9.472 31.8155 9.60851 31.8087L20.2901 30.7144C20.3585 30.7054 20.428 30.7102 20.4944 30.7285C20.5609 30.7468 20.623 30.7783 20.677 30.8211C20.7311 30.8639 20.776 30.9171 20.8091 30.9776C20.8422 31.0381 20.8628 31.1046 20.8697 31.1732C20.8766 31.2418 20.8696 31.311 20.8492 31.3769C20.8288 31.4428 20.7954 31.5038 20.751 31.5565C20.7065 31.6092 20.6519 31.6525 20.5905 31.6837C20.529 31.7149 20.4619 31.7334 20.3931 31.7381L9.71248 32.8355C9.69504 32.8374 9.67751 32.8382 9.65998 32.8381Z" fill="#2D74FF"/>
<path d="M14.9604 3.13969C14.8239 3.13969 14.693 3.08546 14.5964 2.98894C14.4999 2.89241 14.4457 2.7615 14.4457 2.62499V0.514703C14.4457 0.378196 14.4999 0.247279 14.5964 0.150753C14.693 0.0542275 14.8239 0 14.9604 0C15.0969 0 15.2278 0.0542275 15.3243 0.150753C15.4209 0.247279 15.4751 0.378196 15.4751 0.514703V2.62499C15.4751 2.7615 15.4209 2.89241 15.3243 2.98894C15.2278 3.08546 15.0969 3.13969 14.9604 3.13969Z" fill="#2D74FF"/>
<path d="M8.77832 4.8182C8.6878 4.81837 8.59883 4.79468 8.52039 4.74949C8.44195 4.70431 8.37682 4.63924 8.33156 4.56084L7.27796 2.73468C7.21078 2.61652 7.19306 2.47659 7.22868 2.34542C7.26429 2.21426 7.35033 2.1025 7.46804 2.03454C7.58575 1.96658 7.72556 1.94793 7.85696 1.98267C7.98836 2.01742 8.10069 2.10272 8.16942 2.21997L9.22354 4.04614C9.26869 4.12435 9.29247 4.21306 9.29249 4.30336C9.29252 4.39366 9.26878 4.48239 9.22367 4.56062C9.17856 4.63884 9.11366 4.70383 9.03548 4.74904C8.95731 4.79425 8.86862 4.8181 8.77832 4.8182Z" fill="#2D74FF"/>
<path d="M4.26173 9.36303C4.17136 9.36322 4.08255 9.33942 4.00438 9.29406L2.17924 8.23943C2.11857 8.20678 2.06507 8.16228 2.02192 8.10857C1.97876 8.05486 1.94683 7.99304 1.92801 7.92676C1.9092 7.86048 1.90388 7.79109 1.91238 7.72272C1.92087 7.65435 1.94301 7.58838 1.97747 7.52872C2.01194 7.46906 2.05803 7.41693 2.11302 7.37541C2.168 7.3339 2.23076 7.30385 2.29758 7.28704C2.3644 7.27023 2.43391 7.267 2.50199 7.27756C2.57008 7.28811 2.63535 7.31223 2.69394 7.34848L4.5196 8.40259C4.61772 8.45925 4.6944 8.54669 4.73775 8.65137C4.78111 8.75604 4.78871 8.8721 4.75939 8.98154C4.73006 9.09098 4.66545 9.18768 4.57556 9.25666C4.48568 9.32563 4.37555 9.36302 4.26225 9.36303H4.26173Z" fill="#2D74FF"/>
<path d="M2.62499 15.5565H0.514703C0.378196 15.5565 0.247278 15.5023 0.150753 15.4058C0.0542271 15.3092 0 15.1783 0 15.0418C0 14.9053 0.0542271 14.7744 0.150753 14.6779C0.247278 14.5813 0.378196 14.5271 0.514703 14.5271H2.62499C2.76149 14.5271 2.89241 14.5813 2.98894 14.6779C3.08546 14.7744 3.13969 14.9053 3.13969 15.0418C3.13969 15.1783 3.08546 15.3092 2.98894 15.4058C2.89241 15.5023 2.76149 15.5565 2.62499 15.5565Z" fill="#2D74FF"/>
<path d="M2.47782 22.7932C2.36452 22.7932 2.25438 22.7558 2.1645 22.6868C2.07461 22.6178 2.01 22.5211 1.98067 22.4117C1.95135 22.3023 1.95895 22.1862 2.00231 22.0815C2.04566 21.9769 2.12235 21.8894 2.22046 21.8328L4.04663 20.7786C4.1052 20.7448 4.16985 20.7229 4.23689 20.7141C4.30394 20.7053 4.37206 20.7098 4.43737 20.7273C4.50268 20.7448 4.5639 20.775 4.61754 20.8162C4.67118 20.8574 4.71618 20.9087 4.74997 20.9673C4.78377 21.0258 4.8057 21.0905 4.81451 21.1575C4.82332 21.2246 4.81884 21.2927 4.80132 21.358C4.7838 21.4233 4.7536 21.4846 4.71242 21.5382C4.67124 21.5918 4.6199 21.6368 4.56133 21.6706L2.73517 22.7247C2.65687 22.7697 2.56812 22.7933 2.47782 22.7932Z" fill="#2D74FF"/>
<path d="M21.2238 4.8182C21.1335 4.8181 21.0448 4.79425 20.9666 4.74904C20.8884 4.70383 20.8235 4.63884 20.7784 4.56062C20.7333 4.48239 20.7096 4.39366 20.7096 4.30336C20.7096 4.21306 20.7334 4.12435 20.7786 4.04614L21.8306 2.21997C21.8993 2.10272 22.0117 2.01742 22.1431 1.98267C22.2745 1.94793 22.4143 1.96658 22.532 2.03454C22.6497 2.1025 22.7357 2.21426 22.7714 2.34542C22.807 2.47659 22.7892 2.61652 22.7221 2.73468L21.668 4.56084C21.6229 4.63886 21.5582 4.70369 21.4802 4.74885C21.4023 4.79401 21.3139 4.81792 21.2238 4.8182Z" fill="#2D74FF"/>
<path d="M25.7423 9.36303C25.629 9.36302 25.5189 9.32563 25.429 9.25666C25.3391 9.18768 25.2745 9.09098 25.2452 8.98154C25.2159 8.8721 25.2235 8.75604 25.2668 8.65137C25.3102 8.54669 25.3869 8.45925 25.485 8.40259L27.3106 7.34848C27.3692 7.31223 27.4345 7.28811 27.5026 7.27756C27.5707 7.267 27.6402 7.27023 27.707 7.28704C27.7738 7.30385 27.8366 7.3339 27.8916 7.37541C27.9466 7.41693 27.9927 7.46906 28.0271 7.52872C28.0616 7.58838 28.0837 7.65435 28.0922 7.72272C28.1007 7.79109 28.0954 7.86048 28.0766 7.92676C28.0578 7.99304 28.0258 8.05486 27.9827 8.10857C27.9395 8.16228 27.886 8.20678 27.8253 8.23943L25.9997 9.29406C25.9215 9.33942 25.8327 9.36322 25.7423 9.36303Z" fill="#2D74FF"/>
<path d="M29.4853 15.5565H27.3751C27.2385 15.5565 27.1076 15.5023 27.0111 15.4058C26.9146 15.3092 26.8604 15.1783 26.8604 15.0418C26.8604 14.9053 26.9146 14.7744 27.0111 14.6779C27.1076 14.5813 27.2385 14.5271 27.3751 14.5271H29.4853C29.6218 14.5271 29.7528 14.5813 29.8493 14.6779C29.9458 14.7744 30 14.9053 30 15.0418C30 15.1783 29.9458 15.3092 29.8493 15.4058C29.7528 15.5023 29.6218 15.5565 29.4853 15.5565Z" fill="#2D74FF"/>
<path d="M27.5243 22.7932C27.434 22.7932 27.3453 22.7696 27.2669 22.7247L25.4418 21.6706C25.3832 21.6368 25.3319 21.5918 25.2907 21.5382C25.2495 21.4846 25.2193 21.4233 25.2018 21.358C25.1843 21.2927 25.1798 21.2246 25.1886 21.1575C25.1974 21.0905 25.2193 21.0258 25.2531 20.9673C25.2869 20.9087 25.3319 20.8574 25.3856 20.8162C25.4392 20.775 25.5004 20.7448 25.5657 20.7273C25.631 20.7098 25.6992 20.7053 25.7662 20.7141C25.8333 20.7229 25.8979 20.7448 25.9565 20.7786L27.7816 21.8328C27.8797 21.8894 27.9564 21.9769 27.9998 22.0815C28.0431 22.1862 28.0507 22.3023 28.0214 22.4117C27.9921 22.5211 27.9275 22.6178 27.8376 22.6868C27.7477 22.7558 27.6376 22.7932 27.5243 22.7932Z" fill="#2D74FF"/>
<path d="M12.7827 28.4565C12.6665 28.4564 12.5539 28.417 12.463 28.3448C12.372 28.2726 12.3082 28.1717 12.2819 28.0586L9.78657 17.3523C9.76551 17.2617 9.76938 17.1671 9.79776 17.0786C9.82614 16.9901 9.87798 16.9109 9.94776 16.8494C10.0175 16.788 10.1027 16.7466 10.1941 16.7296C10.2855 16.7127 10.3798 16.7208 10.467 16.7532L12.7996 17.6194L14.7344 16.45C14.8148 16.4014 14.9069 16.3757 15.0008 16.3757C15.0947 16.3757 15.1868 16.4014 15.2671 16.45L17.2024 17.6194L19.533 16.7532C19.6202 16.7208 19.7145 16.7127 19.8059 16.7296C19.8973 16.7466 19.9825 16.788 20.0522 16.8494C20.122 16.9109 20.1739 16.9901 20.2022 17.0786C20.2306 17.1671 20.2345 17.2617 20.2134 17.3523L17.7202 28.0581C17.6892 28.1911 17.6067 28.3063 17.4908 28.3784C17.3748 28.4505 17.235 28.4736 17.102 28.4426C16.9691 28.4116 16.8539 28.3291 16.7818 28.2132C16.7097 28.0972 16.6866 27.9574 16.7176 27.8244L18.9936 18.0507L17.328 18.6684C17.2553 18.6951 17.1775 18.7052 17.1003 18.6979C17.0232 18.6906 16.9487 18.6661 16.8823 18.6262L15.0005 17.4923L13.1198 18.6288C13.0535 18.6689 12.9789 18.6936 12.9018 18.7009C12.8246 18.7082 12.7467 18.6979 12.6741 18.671L11.008 18.0533L13.2866 27.825C13.3174 27.9579 13.2941 28.0977 13.2219 28.2135C13.1498 28.3293 13.0345 28.4117 12.9016 28.4426C12.8626 28.4517 12.8227 28.4563 12.7827 28.4565Z" fill="#2D74FF"/>
</svg>
